# xmcd
#
# Track frame offsets: 
#        150
#        16801
#        55570
#
# Disc length: 1224 seconds
#
# Revision: 0
# Processed by: cddbd v1.5.2PL0 Copyright (c) Steve Scherf et al.
# Submitted via: ExactAudioCopy v0.99pb5
#
DISCID=1504c603
DTITLE=Area 51! - Saint Germain
DYEAR=1999
DGENRE=Trance
TTITLE0=Saint Germain (Short)
TTITLE1=Saint Germain (Club Mix)
TTITLE2=Saint Germain (Audity Mix)
EXTD=
EXTT0=
EXTT1=
EXTT2=
PLAYORDER=
